<?xml version="1.0" encoding="UTF-8"?>
<svg id="Capa_1" data-name="Capa 1" xmlns="http://www.w3.org/2000/svg" viewBox="0 0 283.46 201.12">
  <defs>
    <style>
      .cls-1 {
        fill: #ffde00;
      }

      .cls-2 {
        fill: #1d1d1b;
      }

      .cls-3 {
        fill: #233466;
      }

      .cls-4 {
        fill: #fff;
      }

      .cls-5 {
        fill: #009640;
      }
    </style>
  </defs>
  <rect class="cls-2" width="283.46" height="201.12"/>
  <g>
    <path class="cls-4" d="M154.36,78.17c.24,1.05-.51,1.3-1.18,1.45-.68.15-1.39.06-1.68-.77-.22-.61-.05-1.11.47-1.48.21-.14.7-.3.66.02-.27,2.09.89,1.05,1.74.77Z"/>
    <g>
      <path class="cls-4" d="M100.39,148.18c-.12.19-.28.31-.47.38-.19.07-.39.1-.59.1-.13,0-.27-.02-.4-.05-.13-.03-.26-.08-.38-.14-.12-.06-.22-.14-.31-.24-.09-.09-.16-.2-.21-.33l.51-.43.03.07c.08.13.18.24.3.34.13.1.27.14.42.14.17,0,.31-.05.43-.16.12-.1.18-.24.18-.4,0-.09-.02-.17-.06-.24s-.09-.13-.16-.18c-.06-.05-.14-.1-.22-.14-.08-.04-.17-.08-.27-.11-.14-.05-.29-.12-.44-.2-.16-.08-.3-.18-.43-.29-.24-.23-.37-.48-.37-.77,0-.19.04-.35.12-.49.08-.14.19-.26.32-.35s.28-.16.44-.21.32-.07.48-.07c.27,0,.49.07.68.2.19.14.34.32.46.56l-.48.33c-.11-.14-.22-.26-.34-.34-.12-.09-.26-.13-.42-.13-.07,0-.14,0-.21.03-.07.02-.13.04-.19.08-.06.04-.1.08-.14.13-.04.05-.06.12-.06.19,0,.09.03.18.09.25s.14.13.23.19c.09.05.19.1.29.14.1.04.2.08.28.12.12.05.24.12.37.19.13.07.25.16.36.26.11.1.2.21.27.33.07.12.1.26.1.41,0,.1-.01.23-.04.38-.03.16-.09.31-.19.46Z"/>
      <path class="cls-4" d="M104.92,146.36c0,.33-.1.59-.29.78-.19.19-.45.28-.78.28h-.69v1.17h-.63v-4.15h1.31c.37,0,.64.1.81.3.17.2.26.46.26.78v.84ZM104.06,145.19c-.07-.04-.15-.07-.24-.08-.09-.01-.21-.02-.34-.02h-.32v1.72h.32c.08,0,.18,0,.27-.02.1-.01.19-.04.27-.09.18-.1.27-.28.27-.53v-.44c0-.08-.01-.18-.04-.28-.03-.1-.09-.19-.19-.25Z"/>
      <path class="cls-4" d="M109.48,147.4c0,.24-.03.43-.09.6s-.15.29-.27.39c-.12.1-.26.17-.44.21-.17.04-.37.06-.59.06s-.43-.02-.6-.07c-.18-.05-.32-.12-.44-.22s-.21-.23-.27-.39c-.06-.16-.09-.36-.09-.59v-1.75c0-.24.03-.44.09-.6.06-.16.15-.29.27-.39s.26-.17.44-.21c.18-.04.38-.06.6-.06.45,0,.8.09,1.04.28s.36.51.36.97v1.75ZM108.12,145.03h-.08c-.26,0-.45.08-.56.23s-.16.35-.16.61v1.32c0,.27.06.48.17.62.12.14.3.21.55.21h.08c.14,0,.25-.02.35-.06s.17-.1.23-.17c.06-.07.1-.16.12-.26.02-.1.03-.22.03-.34v-1.32c0-.28-.06-.49-.19-.63-.12-.14-.3-.21-.54-.21Z"/>
      <path class="cls-4" d="M113.28,148.6l-.53-1.17h-.55v1.17h-.63v-4.15h1.31c.34,0,.6.1.79.3.19.2.28.46.28.78v.84c0,.19-.04.37-.11.55-.07.18-.19.3-.35.38l-.12.06.58,1.25h-.67ZM112.72,145.08h-.53v1.73h.43c.11,0,.21,0,.28-.02.08-.01.15-.04.21-.09.09-.07.14-.15.17-.25.02-.1.03-.2.03-.29v-.43c0-.43-.2-.64-.6-.64Z"/>
      <path class="cls-4" d="M118.36,145.03h-1.01v3.57h-.63v-3.57h-1.01v-.58h2.65v.58Z"/>
      <path class="cls-4" d="M122.34,145.03h-1.5v1.16h1.18v.59h-1.18v1.81h-.63v-4.15h2.13v.58Z"/>
      <path class="cls-4" d="M124.19,148.6v-4.15h.63v4.15h-.63Z"/>
      <path class="cls-4" d="M129.14,148.18c-.12.19-.28.31-.47.38-.19.07-.39.1-.59.1-.13,0-.27-.02-.4-.05-.13-.03-.26-.08-.38-.14-.12-.06-.22-.14-.31-.24-.09-.09-.16-.2-.21-.33l.51-.43.03.07c.08.13.18.24.3.34.13.1.27.14.42.14.17,0,.31-.05.43-.16.12-.1.18-.24.18-.4,0-.09-.02-.17-.06-.24s-.09-.13-.16-.18c-.06-.05-.14-.1-.22-.14s-.17-.08-.27-.11c-.14-.05-.29-.12-.44-.2s-.3-.18-.43-.29c-.24-.23-.37-.48-.37-.77,0-.19.04-.35.12-.49s.19-.26.32-.35c.13-.09.28-.16.44-.21.16-.05.32-.07.48-.07.27,0,.49.07.68.2.19.14.34.32.46.56l-.48.33c-.11-.14-.22-.26-.34-.34-.12-.09-.26-.13-.42-.13-.07,0-.14,0-.21.03-.07.02-.13.04-.19.08-.06.04-.1.08-.14.13s-.06.12-.06.19c0,.09.03.18.09.25s.14.13.23.19c.09.05.19.1.29.14.1.04.2.08.28.12.12.05.24.12.37.19.13.07.25.16.36.26.11.1.2.21.27.33s.1.26.1.41c0,.1-.01.23-.04.38-.03.16-.09.31-.19.46Z"/>
      <path class="cls-4" d="M133.88,148.6h-.63v-1.83h-1.33v1.83h-.63v-4.15h.63v1.73h1.33v-1.73h.63v4.15Z"/>
      <path class="cls-4" d="M136.04,148.6v-4.15h.63v4.15h-.63Z"/>
      <path class="cls-4" d="M141.26,148.6h-.63l-1.2-2.69v2.69h-.63v-4.15h.68l1.15,2.66v-2.66h.63v4.15Z"/>
      <path class="cls-4" d="M146.15,145.72h-.63v-.02c0-.12-.02-.23-.06-.31-.04-.08-.09-.15-.16-.21s-.14-.09-.23-.11c-.09-.02-.18-.03-.28-.03h-.08c-.25,0-.44.08-.57.25-.05.07-.09.15-.11.25-.03.09-.04.21-.04.34v1.32c0,.27.06.48.18.62.12.14.3.21.54.21h.08c.25,0,.43-.08.55-.23s.18-.35.18-.61v-.19h-.76v-.58h1.39v.98c0,.25-.04.45-.11.62s-.17.29-.3.39-.27.17-.44.2c-.17.04-.35.06-.54.06-.22,0-.41-.02-.59-.07-.17-.05-.32-.12-.44-.22-.12-.1-.22-.23-.28-.39-.06-.16-.1-.36-.1-.58v-1.75c0-.24.03-.44.1-.6s.17-.29.29-.39c.12-.1.27-.16.44-.2s.36-.06.57-.06c.22,0,.42.02.59.07.17.04.32.12.44.22.12.1.21.23.27.39s.09.35.09.58v.07Z"/>
      <path class="cls-4" d="M151.32,146.64v-.43h1.47v.43h-1.47Z"/>
      <path class="cls-4" d="M160.06,148.38c-.14.1-.29.16-.45.19s-.32.03-.47.03h-1.23v-4.15h1c.16,0,.33,0,.5.03s.31.06.42.14c.12.08.21.19.27.35.05.12.07.29.07.5,0,.12-.01.24-.04.35-.02.11-.07.22-.13.33.09.08.16.16.21.24.04.07.08.15.11.24.05.17.08.39.08.66,0,.08,0,.18,0,.28,0,.1-.02.2-.05.31-.02.1-.06.2-.1.29-.04.09-.1.16-.18.22ZM159.08,145.92c.14,0,.25-.04.33-.11s.12-.18.12-.32c0-.09-.02-.17-.05-.22-.04-.06-.08-.1-.14-.13-.06-.03-.12-.05-.19-.06s-.14-.01-.21-.01h-.39v.85h.53ZM158.54,146.56v1.41h.38c.11,0,.22-.01.32-.04s.19-.07.27-.13c.08-.06.14-.13.18-.22.05-.09.07-.2.07-.32,0-.2-.06-.37-.19-.5-.12-.13-.29-.2-.51-.2h-.53Z"/>
      <path class="cls-4" d="M164.12,148.6l-.53-1.17h-.55v1.17h-.63v-4.15h1.31c.34,0,.6.1.79.3.19.2.28.46.28.78v.84c0,.19-.04.37-.11.55-.07.18-.19.3-.35.38l-.12.06.58,1.25h-.67ZM163.56,145.08h-.53v1.73h.43c.11,0,.21,0,.28-.02.08-.01.15-.04.21-.09.09-.07.14-.15.17-.25.02-.1.03-.2.03-.29v-.43c0-.43-.2-.64-.6-.64Z"/>
      <path class="cls-4" d="M168.64,147.62h-1.17l-.26.97h-.62l1.11-4.15h.71l1.11,4.15h-.62l-.27-.97ZM167.62,147.05h.87l-.45-1.61-.42,1.61Z"/>
      <path class="cls-4" d="M173.83,148.6h-2.45v-.65l1.71-2.92h-1.73v-.58h2.45v.65l-1.71,2.92h1.72v.58Z"/>
      <path class="cls-4" d="M175.98,148.6v-4.15h.63v4.15h-.63Z"/>
      <path class="cls-4" d="M180.88,148.6h-2.13v-4.15h.63v3.56h1.5v.59Z"/>
    </g>
    <path class="cls-4" d="M194.17,133.85c-1.83-.49-3.66-1.01-5.51-1.4-7.73-1.64-15.57-2.38-23.46-2.61-16.56-.49-24.79,4.37-11.11,3.38,9.94-.72,21.67-1.19,31.6-.12,3.11.34,6.21.7,9.3,1.44-.06-.59-.49-.6-.81-.68Z"/>
    <g>
      <path class="cls-4" d="M86.31,101.93l-.26.86c-.52.04-.93.19-1.23.44-.3.25-.59.81-.86,1.68l-3.1,9.74h-1.22l-4.41-9.46-2.03,6.46c-.13.44-.2.76-.2.95,0,.42.17.7.5.87.33.16.69.24,1.08.24l-.28.86h-4.37l.27-.86c.59-.09,1.03-.34,1.31-.75.28-.42.52-.95.72-1.61l2.35-7.48-.21-.34c-.21-.34-.41-.54-.61-.61s-.56-.11-1.1-.11l.28-.86h3.55l4.37,9.41,1.88-5.93c.04-.13.09-.29.15-.48.06-.19.12-.37.16-.53s.06-.32.06-.46c0-.27-.12-.53-.37-.78s-.67-.37-1.27-.37l.28-.86h4.55Z"/>
      <path class="cls-4" d="M93.31,108.21c0,.25-.08.55-.24.88-.16.33-.45.68-.88,1.06-.43.37-1.04.7-1.83.99-.79.29-1.79.48-2.99.59l-.23.02c-.05.25-.08.48-.08.69,0,.46.11.79.34.99s.56.3,1,.3c.96,0,1.88-.5,2.76-1.51h1.02c-.4.59-1,1.17-1.81,1.75s-1.77.87-2.88.87c-.77,0-1.43-.2-1.98-.6-.55-.4-.82-.99-.82-1.77,0-.95.27-1.87.82-2.77.55-.9,1.29-1.63,2.23-2.19.94-.56,1.97-.84,3.08-.84.89,0,1.53.15,1.91.44.38.29.57.66.57,1.11ZM91.28,108.17c0-.21-.07-.39-.22-.56-.15-.17-.35-.26-.61-.26-.45,0-.86.15-1.24.45s-.69.66-.95,1.07c-.26.41-.47.83-.63,1.25-.16.42-.26.68-.3.78,1.3-.21,2.29-.57,2.95-1.07.66-.5,1-1.06,1-1.66Z"/>
      <path class="cls-4" d="M102.56,107.88c0,.39-.11.74-.34,1.04-.22.3-.51.45-.85.45-.29,0-.57-.16-.85-.49-.15-.19-.3-.29-.45-.29-.17,0-.41.16-.71.47-.3.31-.61.73-.93,1.25s-.63,1.12-.94,1.79-.57,1.36-.8,2.07l-.12.38h-2.26l1.51-5.23c.16-.5.24-.85.24-1.05,0-.07-.02-.15-.07-.22-.05-.07-.12-.11-.21-.11-.25,0-.5.17-.76.51-.26.34-.45.65-.58.93h-.88c.37-.72.75-1.28,1.14-1.67.39-.39.76-.67,1.13-.82.36-.16.69-.23.99-.23.51,0,.84.16,1,.47s.23.61.23.91c0,.54-.18,1.39-.54,2.55.37-.61.67-1.1.9-1.46.23-.37.51-.74.84-1.14.32-.39.67-.71,1.03-.96.36-.25.72-.37,1.06-.37.49,0,.82.14.98.41.16.27.24.54.24.81Z"/>
      <path class="cls-4" d="M112.09,108.1c0,.68-.18,1.41-.55,2.21s-.86,1.54-1.48,2.23c-.62.69-1.32,1.24-2.1,1.66s-1.55.63-2.32.63c-.37,0-.72-.06-1.06-.19s-.63-.34-.87-.64c-.23-.3-.35-.68-.35-1.16,0-.57.16-1.07.47-1.51.31-.44.76-.91,1.34-1.39.47-.39.82-.7,1.05-.94.23-.24.43-.52.6-.85-.47.33-.95.49-1.43.49-.31,0-.65-.1-1.01-.29-.21-.11-.37-.17-.49-.17-.29,0-.49.18-.59.55h-.81c.43-1.38,1.08-2.08,1.96-2.08.42,0,.89.21,1.4.61.16.12.29.21.38.25.09.04.18.07.26.07.28,0,.47-.17.56-.51.06-.28.2-.42.39-.42.15,0,.26.05.35.14.08.09.13.21.13.36,0,.32-.09.67-.28,1.04-.19.37-.43.78-.73,1.23-.51.8-.87,1.42-1.06,1.86-.2.45-.29.84-.29,1.19,0,.37.12.63.37.8.25.16.52.25.83.25.63,0,1.23-.22,1.8-.67.57-.45,1.04-.98,1.39-1.6.35-.62.53-1.16.53-1.62,0-.29-.05-.63-.15-1.02-.1-.32-.14-.6-.14-.86,0-.4.09-.69.28-.86.19-.17.39-.25.61-.25.29,0,.53.13.72.39.19.26.28.61.28,1.04Z"/>
      <path class="cls-4" d="M122.29,109.94c0,.62-.13,1.23-.38,1.82-.25.59-.62,1.12-1.1,1.58-.48.47-1.04.83-1.68,1.09-.64.26-1.35.4-2.12.4s-1.41-.14-1.98-.42c-.57-.28-1.01-.68-1.33-1.19-.31-.51-.47-1.09-.47-1.75,0-.83.24-1.62.71-2.37.47-.74,1.12-1.34,1.94-1.78.82-.44,1.7-.66,2.65-.66.79,0,1.47.15,2.04.45s1,.7,1.29,1.21c.29.5.43,1.04.43,1.62ZM120.01,109.3c0-.58-.13-1.03-.38-1.36-.25-.33-.63-.49-1.12-.49s-.91.17-1.29.52c-.38.35-.69.78-.94,1.31-.25.52-.44,1.05-.57,1.58-.13.53-.19.99-.19,1.37,0,.53.13.97.38,1.31.25.34.6.51,1.06.51.51,0,.96-.17,1.35-.51.39-.34.71-.77.97-1.3.25-.52.44-1.06.56-1.6.12-.54.18-.99.18-1.34Z"/>
      <path class="cls-4" d="M134.16,112.21c-.26.61-.64,1.2-1.14,1.77s-1.17.85-2.02.85c-.53,0-.9-.14-1.11-.41-.21-.27-.32-.59-.32-.95,0-.15.03-.36.09-.61.06-.25.14-.54.24-.85l.32-1.05c-.69,1.08-1.39,2-2.12,2.75-.73.75-1.54,1.13-2.43,1.13-.46,0-.8-.13-1.05-.38-.24-.25-.37-.56-.37-.9,0-.33.09-.77.27-1.33l.97-3.07c.13-.37.19-.64.19-.8,0-.07-.02-.15-.07-.23-.05-.08-.13-.12-.25-.12-.38,0-.86.43-1.43,1.3h-.88c.44-.68.92-1.27,1.46-1.78s1.2-.76,2.01-.76c.37,0,.7.09,1.01.28.3.19.46.54.46,1.06,0,.3-.04.58-.13.82l-.79,2.48c-.18.57-.27.98-.27,1.24,0,.14.04.27.13.39.09.12.21.19.36.19.3,0,.67-.22,1.12-.67.44-.44.92-1.14,1.45-2.08.52-.94,1.03-2.12,1.53-3.54h2.29l-1.8,5.68c-.12.4-.17.65-.17.73,0,.07.03.15.09.23.06.08.13.12.2.12.24,0,.47-.16.68-.47.22-.31.41-.65.59-1.01h.9Z"/>
      <path class="cls-4" d="M143.37,108.24c0,.25-.09.48-.26.67-.18.19-.42.29-.72.29-.23,0-.41-.04-.54-.13s-.23-.21-.31-.36c-.07-.16-.17-.39-.27-.69-.06-.21-.17-.38-.3-.49-.14-.12-.39-.18-.77-.18-.33,0-.63.08-.9.25-.27.17-.4.39-.4.66,0,.19.05.36.16.53.11.17.24.33.4.48.16.15.4.36.74.63.63.5,1.09.92,1.37,1.26s.43.76.43,1.27c0,.41-.12.8-.37,1.16s-.65.66-1.21.89c-.56.23-1.29.34-2.16.34-1.26,0-2.15-.23-2.67-.68-.51-.45-.77-.89-.77-1.31,0-.28.1-.52.3-.74.2-.21.46-.32.79-.32.65,0,1.03.41,1.13,1.22.04.35.15.62.3.82.16.2.48.3.98.3.43,0,.78-.11,1.06-.32.28-.21.41-.48.41-.81,0-.17-.05-.34-.14-.51-.09-.17-.29-.37-.58-.61-.52-.42-.95-.79-1.28-1.12-.34-.32-.59-.63-.76-.93-.17-.3-.26-.61-.26-.94,0-.29.1-.61.3-.95.2-.34.57-.64,1.13-.9.55-.26,1.3-.39,2.24-.39.58,0,1.06.05,1.46.15.4.1.7.23.92.39.21.16.36.33.45.5.08.18.13.36.13.54Z"/>
    </g>
    <g>
      <path class="cls-4" d="M172.31,101.93l-.28.86c-.49,0-.86.05-1.13.15-.26.1-.46.27-.58.5s-.26.63-.42,1.18l-1.95,7.37c-.1.39-.15.68-.15.86,0,.34.14.56.42.68.28.12.68.18,1.2.18l-.28.86h-6.09l.28-.86c.47,0,.84-.04,1.08-.11.25-.07.43-.2.55-.39.12-.19.24-.49.36-.92l2.28-8.72-7.71,10.99h-1.24l-.72-10.97-3.23,8.24c-.19.47-.28.78-.28.93,0,.35.15.59.44.69.29.11.7.19,1.22.25l-.28.86h-4.31l.28-.86c.43-.06.82-.29,1.18-.72.36-.42.65-.92.87-1.48l2.86-7.23c.08-.2.12-.38.12-.56,0-.3-.12-.53-.35-.69-.23-.16-.56-.24-.99-.24h-.22l.26-.86h4.71l.69,9.63,6.79-9.63h4.64Z"/>
      <path class="cls-4" d="M180.76,112.32c-.19.37-.39.7-.63,1.01-.23.3-.49.57-.77.8-.28.23-.57.4-.85.52-.29.12-.58.18-.89.18-.67,0-1.11-.2-1.29-.59-.19-.39-.28-.86-.28-1.41-.51.59-1.02,1.07-1.52,1.44s-1.07.56-1.71.56c-.38,0-.69-.1-.94-.3-.25-.2-.43-.47-.55-.82-.12-.34-.18-.71-.18-1.1,0-.84.22-1.72.66-2.65s1.04-1.71,1.8-2.35c.76-.63,1.58-.95,2.46-.95.4,0,.72.08.95.23.23.16.39.33.48.52.09.19.16.41.23.64l.36-1.16h2.13l-1.79,5.68c-.13.41-.19.66-.19.75,0,.08.03.15.08.2.05.06.12.08.19.08.42,0,.86-.43,1.34-1.29h.93ZM177.18,108.61c0-.3-.06-.56-.18-.78-.12-.22-.34-.33-.65-.33-.48,0-.95.27-1.4.81s-.82,1.19-1.1,1.95-.42,1.4-.42,1.92c0,.75.24,1.13.73,1.13.34,0,.69-.15,1.04-.45.36-.3.68-.7.99-1.21.31-.52.56-1.05.73-1.58.17-.53.25-1.02.25-1.45Z"/>
      <path class="cls-4" d="M190,107.88c0,.39-.11.74-.34,1.04-.22.3-.51.45-.85.45-.29,0-.57-.16-.85-.49-.15-.19-.31-.29-.45-.29-.17,0-.41.16-.71.47-.3.31-.61.73-.93,1.25s-.63,1.12-.94,1.79c-.31.67-.57,1.36-.8,2.07l-.12.38h-2.26l1.51-5.23c.16-.5.24-.85.24-1.05,0-.07-.02-.15-.07-.22-.05-.07-.12-.11-.21-.11-.25,0-.5.17-.76.51s-.45.65-.58.93h-.89c.37-.72.75-1.28,1.14-1.67.39-.39.76-.67,1.13-.82.36-.16.69-.23.99-.23.51,0,.84.16,1,.47.15.31.23.61.23.91,0,.54-.18,1.39-.54,2.55.37-.61.67-1.1.9-1.46.23-.37.51-.74.84-1.14.32-.39.67-.71,1.03-.96.36-.25.72-.37,1.06-.37.49,0,.82.14.98.41.16.27.24.54.24.81Z"/>
      <path class="cls-4" d="M196.19,101.71l-3.37,10.68c-.17.53-.26.86-.26.99,0,.11.03.19.08.25.05.06.12.09.2.09.17,0,.4-.15.69-.44.29-.29.53-.62.7-1h.9c-.31.58-.73,1.15-1.26,1.7-.53.56-1.18.84-1.97.84-.48,0-.87-.13-1.16-.39s-.44-.57-.44-.94c0-.29.1-.75.3-1.41l2.46-7.77c.16-.51.24-.85.24-1.02,0-.22-.09-.36-.27-.43s-.52-.1-1.02-.1l.23-.86h1.03c.44,0,.85-.02,1.21-.05.37-.03.72-.09,1.05-.18h.65Z"/>
      <path class="cls-4" d="M201.57,112.32c-.25.54-.64,1.09-1.17,1.66s-1.2.85-2,.85c-.54,0-.94-.13-1.21-.39-.27-.26-.4-.56-.4-.92s.12-.86.36-1.5l1.24-3.29c.12-.3.18-.5.18-.61,0-.07-.03-.13-.09-.19-.06-.06-.12-.08-.19-.08-.22,0-.46.16-.72.49-.26.33-.45.62-.58.88h-.85c.38-.82.87-1.45,1.48-1.91.61-.45,1.21-.68,1.81-.68.42,0,.77.1,1.05.3s.42.47.42.81c0,.35-.07.71-.21,1.07l-1.5,3.9c-.1.27-.15.48-.15.65,0,.07.03.15.09.22.06.07.13.11.2.11.19,0,.39-.1.6-.3.21-.2.46-.57.77-1.1h.89ZM202.28,102.91c0,.34-.12.62-.37.86-.25.24-.54.36-.87.36-.36,0-.66-.12-.9-.36s-.36-.53-.36-.86.12-.6.36-.84c.24-.24.54-.36.9-.36.23,0,.44.05.63.16.19.11.34.25.45.43.11.18.16.38.16.61Z"/>
      <path class="cls-4" d="M213.25,112.12c-.18.33-.43.69-.75,1.08-.32.39-.71.74-1.19,1.04-.47.3-.98.45-1.53.45-.47,0-.85-.11-1.13-.34s-.41-.52-.41-.88c0-.29.08-.67.24-1.16l.7-2.24c.2-.61.3-1.03.3-1.26,0-.14-.04-.26-.13-.37-.09-.11-.21-.17-.36-.17-.35,0-.77.28-1.27.85s-1.01,1.33-1.52,2.29c-.52.96-.96,2.01-1.34,3.16h-2.29l1.74-5.46c.15-.55.23-.86.23-.95,0-.07-.02-.15-.06-.23s-.11-.12-.22-.12c-.25,0-.49.15-.72.46-.23.3-.42.64-.58,1h-.81c.24-.66.62-1.26,1.13-1.8.51-.53,1.15-.8,1.93-.8.5,0,.87.13,1.12.39.25.26.37.54.37.83,0,.16-.04.41-.11.74-.07.33-.15.64-.24.92l-.34.96c.8-1.19,1.54-2.12,2.24-2.81.7-.69,1.48-1.03,2.33-1.03.49,0,.85.14,1.08.41s.34.58.34.9c0,.2-.08.57-.23,1.13l-1.01,3.24c-.12.4-.17.69-.17.85,0,.06.02.12.06.18s.1.08.17.08c.18,0,.41-.12.69-.37.28-.25.54-.57.77-.96h.96Z"/>
    </g>
    <path class="cls-4" d="M114.84,84.56c1.13.19,5.51-2.38,1.27-2.46-5.37-.1-10.74.71-16.13,2.13.15.34.3.28.5.25,3.27-.44,6.55-.46,9.83-.38.54.01.67.18.55.71-.2.89-.6,1.7-.77,2.6-.29,1.54-.38,3.1-.6,4.65-.19,3.38.14,5.43.22,5.8.15-.57.11-.92.22-1.45.09-1.13.32-2.22.6-3.33.46-1.81.96-3.59,1.71-5.31.41-.93,1.01-1.74,1.44-2.65.21-.44.62-.65,1.16-.56ZM213.38,68.58c-6.49.95-12.91,2.32-19.39,3.36-6.02.97-11.99,2.18-18.05,2.86-4,.45-7.94.36-11.87-.64-3.33-.85-6.53-2.08-9.8-3.12-3.34-1.07-7.41-1.95-10.92-2.09-1.23-.23-5.24.03-6.64.13-.08,0-.25-1.12,3.98-1.43.18-.01.28-.21.05-.41-2.45-1.53-4.63-3.39-6.53-5.55-1.6-1.82-3.08-3.74-4.67-5.57-1.54-1.78-5.73-5-6.36-5.29-1.13-.55-.93.49-.89.67.83,3.28,2.97,7.13,1.67,10.14-.44,4.05-6.79,10.73-6.79,10.73,0,0-4.11,5.06-4.14,7.77,0,.5.12.69.72.63.85-.08,1.71-.1,2.56-.03.99.09,1.75-.3,2.48-.85,1.97-1.52,4.19-2.59,6.5-3.45,3.83-1.43,2.55.69-2.48,3.02-.84.39-.54,1.86.36,1.45,3.1-1.41,6.38-2.23,9.7-2.86,1.45-.27,2.91-.5,4.54-.51-.96,1.94-.27,2.62,1.15,1.6,2.33-1.68,4.96-2.71,7.76-3.29,2.78-.57,5.57-.86,8.36-.03,1.46.44,2.78,1.45,2.48,3.23-.1.59.2.58.62.5,1.64-.32,3.28-.6,4.91-.94,4.84-1.01,9.75-1.7,14.58-2.75,2.31-.5,4.65-.89,6.98-1.33,0,0,1.32-.05.48.14-1.69.43-3.38.86-5.07,1.28-4.29,1.09-8.58,2.14-12.86,3.27-5.28,1.39-5.65,2.05-10.91,3.51-.69.19-1,1.54.34,1.59,5.65.49,3.11,2.34,8.59,3.71-4.14-.26-20.64.75-22.56.54.41.38.69.47.99.55,1.25.37,2.58.45,3.75,1.07.01.32-.24.27-.43.31-1.2.27-2.41.13-3.62.17-1.42-.2-2.83-.43-4.17-.97-2.62-1.06-4.78-2.54-5.58-5.49-.18-.66-.2-1.3-.3-1.97-.23.11-.23.31-.26.48-.37,2.3-.5,4.55,1.08,6.54.31.39.14.73-.36.74-4.41.08-7.45.04-11.42,2.07-2.2,1.13-3.98,2.72-5.47,4.69-.62.82-1.03,1.72-1.51,2.6-.54.99-.11,1.87.3,1.18,1.32-2.16,3.12-3.79,5.24-5.08,3.54-2.16,6.23-2.31,10.34-2.64,3.25-.26,6.45.24,9.69.27,5.55.05,11.58-1.29,13.57-1.8,6.04-1.56,8.02-2.61,14.26-2.29.24.01.46-.48.25-.64-1.36-.99-4.2-1.89-5.89-2.93-1.13-.7-1.13-2.15-.02-2.87,1.34-.88,2.85-1.35,4.33-1.88,3.08-1.11,6.21-2.06,9.38-2.87,4.87-1.25,9.73-2.49,14.61-3.68,4.32-1.06,8.66-2.06,12.98-3.09,3.13-.74,6.26-1.47,9.39-2.21.13-.03.11-.25-.07-.24ZM109.93,96.41s0,0,0,0c0,0,0,0,0,.01v-.02ZM113.38,88.09c.94-1.01,1.81-1.95,2.72-2.93-.9-.23-2.45,1.47-2.72,2.93Z"/>
    <path class="cls-4" d="M165.03,130.04c-2.36-.13-4.71-.12-7.07-.16-4.64-.07-9.25-.39-13.88-.87-8.08-.84-17.82-4.42-22.49-7.52-.87-.58-1.45.2-.9.86,3.14,3.81,13.53,7.08,17.69,8.24.52.15.38.45,0,.46-5.35.17-7.81-.64-12.9-2.35-5.27-1.77-9.53-4.18-13.1-8.62-.31-.39-.7-.02-.56.22,1.22,2.02,2.89,3.67,4.71,5.11,3.02,2.39,6.45,4.06,10.07,5.34,4.54,1.6,9.24,2.32,14.02,2.6,5.95.34,11.88-.03,17.81-.39,8.82-.54,10.7-2.85,6.59-2.92Z"/>
    <g>
      <rect class="cls-5" x="187.7" y="141.48" width="14.56" height="8.96"/>
      <polygon class="cls-1" points="190 146.01 195.23 142.63 200.49 146 195.24 149.41 190 146.01"/>
      <ellipse class="cls-3" cx="195.25" cy="146" rx="2.22" ry="2.24"/>
      <path class="cls-4" d="M195.04,145.12c1.52.32,2.4,1.22,2.4,1.22-.02.17-.08.36-.08.36-.97-.93-2.19-1.18-2.19-1.18-1.08-.26-2.06-.07-2.06-.07.03-.13.12-.34.12-.34,0,0,.74-.14,1.82.03Z"/>
      <polygon class="cls-4" points="193.43 145.5 193.46 145.57 193.52 145.57 193.47 145.61 193.49 145.68 193.43 145.64 193.38 145.68 193.4 145.61 193.34 145.57 193.41 145.57 193.43 145.5"/>
      <polygon class="cls-4" points="194.4 146.01 194.42 146.07 194.48 146.07 194.43 146.11 194.45 146.16 194.4 146.13 194.35 146.16 194.37 146.11 194.32 146.07 194.38 146.07 194.4 146.01"/>
      <polygon class="cls-4" points="193.85 146.35 193.86 146.38 193.9 146.38 193.87 146.41 193.88 146.44 193.85 146.42 193.82 146.44 193.83 146.41 193.8 146.38 193.84 146.38 193.85 146.35"/>
      <polygon class="cls-4" points="193.63 146.44 193.65 146.51 193.73 146.51 193.67 146.56 193.69 146.63 193.63 146.59 193.57 146.63 193.59 146.56 193.53 146.51 193.61 146.51 193.63 146.44"/>
      <polygon class="cls-4" points="193.36 146.67 193.37 146.72 193.43 146.72 193.38 146.76 193.4 146.81 193.36 146.78 193.31 146.81 193.33 146.76 193.28 146.72 193.34 146.72 193.36 146.67"/>
      <polygon class="cls-4" points="194.09 146.69 194.11 146.74 194.17 146.74 194.12 146.78 194.14 146.83 194.09 146.8 194.05 146.83 194.06 146.78 194.02 146.74 194.07 146.74 194.09 146.69"/>
      <polygon class="cls-4" points="194.02 146.91 194.04 146.97 194.1 146.97 194.05 147 194.07 147.06 194.02 147.02 193.98 147.06 194 147 193.95 146.97 194.01 146.97 194.02 146.91"/>
      <polygon class="cls-4" points="194.35 147.11 194.37 147.17 194.44 147.17 194.38 147.21 194.4 147.27 194.35 147.23 194.3 147.27 194.32 147.21 194.27 147.17 194.33 147.17 194.35 147.11"/>
      <polygon class="cls-4" points="195.24 146.93 195.26 146.99 195.32 146.99 195.27 147.02 195.29 147.09 195.24 147.05 195.19 147.09 195.21 147.02 195.16 146.99 195.22 146.99 195.24 146.93"/>
      <polygon class="cls-4" points="195.5 146.48 195.52 146.54 195.58 146.54 195.53 146.58 195.55 146.63 195.5 146.6 195.45 146.63 195.47 146.58 195.42 146.54 195.48 146.54 195.5 146.48"/>
      <polygon class="cls-4" points="195.24 146.28 195.26 146.34 195.32 146.34 195.27 146.37 195.29 146.43 195.24 146.39 195.19 146.43 195.21 146.37 195.16 146.34 195.22 146.34 195.24 146.28"/>
      <polygon class="cls-4" points="195.01 146.49 195.03 146.54 195.08 146.54 195.04 146.57 195.06 146.62 195.01 146.59 194.97 146.62 194.99 146.57 194.95 146.54 195 146.54 195.01 146.49"/>
      <polygon class="cls-4" points="195.13 146.67 195.14 146.7 195.18 146.7 195.15 146.73 195.16 146.76 195.13 146.74 195.09 146.76 195.11 146.73 195.08 146.7 195.11 146.7 195.13 146.67"/>
      <polygon class="cls-4" points="195.84 145.84 195.86 145.88 195.89 145.88 195.86 145.9 195.87 145.94 195.84 145.91 195.81 145.94 195.82 145.9 195.79 145.88 195.83 145.88 195.84 145.84"/>
      <polygon class="cls-4" points="195.93 145.2 195.95 145.27 196.02 145.27 195.96 145.31 195.99 145.38 195.93 145.34 195.87 145.38 195.89 145.31 195.83 145.27 195.91 145.27 195.93 145.2"/>
      <polygon class="cls-4" points="196.79 146.69 196.81 146.76 196.89 146.76 196.83 146.8 196.85 146.87 196.79 146.83 196.73 146.87 196.76 146.8 196.7 146.76 196.77 146.76 196.79 146.69"/>
      <polygon class="cls-4" points="196.74 147.08 196.76 147.14 196.82 147.14 196.77 147.17 196.79 147.23 196.74 147.2 196.7 147.23 196.71 147.17 196.67 147.14 196.73 147.14 196.74 147.08"/>
      <polygon class="cls-4" points="196.88 146.91 196.9 146.97 196.96 146.97 196.91 147 196.93 147.06 196.88 147.02 196.83 147.06 196.85 147 196.8 146.97 196.86 146.97 196.88 146.91"/>
      <polygon class="cls-4" points="197.1 146.74 197.11 146.78 197.16 146.78 197.12 146.81 197.14 146.86 197.1 146.83 197.06 146.86 197.08 146.81 197.04 146.78 197.08 146.78 197.1 146.74"/>
      <polygon class="cls-4" points="196.57 147.22 196.58 147.26 196.63 147.26 196.59 147.29 196.61 147.33 196.57 147.31 196.53 147.33 196.55 147.29 196.51 147.26 196.56 147.26 196.57 147.22"/>
      <polygon class="cls-4" points="196.35 147.38 196.37 147.43 196.42 147.43 196.38 147.47 196.39 147.52 196.35 147.48 196.31 147.52 196.32 147.47 196.28 147.43 196.33 147.43 196.35 147.38"/>
      <polygon class="cls-4" points="196.34 147.18 196.35 147.22 196.39 147.22 196.36 147.24 196.37 147.29 196.34 147.26 196.3 147.29 196.31 147.24 196.28 147.22 196.32 147.22 196.34 147.18"/>
      <polygon class="cls-4" points="196.1 147.26 196.11 147.3 196.15 147.3 196.12 147.32 196.13 147.37 196.1 147.34 196.06 147.37 196.07 147.32 196.04 147.3 196.08 147.3 196.1 147.26"/>
      <polygon class="cls-4" points="195.73 147.2 195.74 147.24 195.79 147.24 195.75 147.26 195.76 147.31 195.73 147.28 195.69 147.31 195.71 147.26 195.67 147.24 195.72 147.24 195.73 147.2"/>
      <polygon class="cls-4" points="196.35 147.63 196.36 147.67 196.41 147.67 196.37 147.7 196.38 147.74 196.35 147.71 196.31 147.74 196.33 147.7 196.29 147.67 196.34 147.67 196.35 147.63"/>
      <polygon class="cls-4" points="195.91 147.44 195.92 147.49 195.98 147.49 195.93 147.53 195.95 147.58 195.91 147.54 195.86 147.58 195.88 147.53 195.84 147.49 195.89 147.49 195.91 147.44"/>
      <polygon class="cls-4" points="195.25 147.72 195.25 147.75 195.28 147.75 195.26 147.76 195.27 147.79 195.25 147.77 195.23 147.79 195.23 147.76 195.21 147.75 195.24 147.75 195.25 147.72"/>
      <g>
        <path class="cls-5" d="M193.42,145.22c.01.06-.02.1-.08.11-.05,0-.1-.02-.12-.08-.01-.06.02-.1.08-.11.06,0,.11.03.12.08ZM193.25,145.25s.04.07.08.06c.04,0,.06-.04.05-.09,0-.04-.04-.07-.08-.07-.05,0-.06.05-.05.09Z"/>
        <path class="cls-5" d="M193.53,145.12s.03,0,.05,0c.03,0,.05,0,.07.01.01,0,.02.02.02.03,0,.02-.01.04-.03.05,0,0,0,0,0,0,.02,0,.03.02.04.04.01.03.02.04.02.05,0,0-.02,0-.03,0,0,0-.01-.02-.02-.04,0-.03-.02-.03-.05-.03,0,0-.02,0-.03,0,0,.03,0,.05.01.08,0,0-.02,0-.03,0-.01-.06-.02-.12-.03-.18ZM193.57,145.2s.02,0,.03,0c.03,0,.05-.02.04-.04,0-.02-.03-.03-.05-.03-.01,0-.02,0-.03,0,0,.02,0,.05.01.07Z"/>
        <path class="cls-5" d="M193.8,145.1s.04,0,.06,0c.04,0,.07,0,.09.02.02.02.03.04.03.07,0,.03,0,.06-.03.07-.02.02-.05.03-.09.03-.02,0-.04,0-.05,0,0-.06-.01-.12-.02-.18ZM193.85,145.26s.02,0,.03,0c.06,0,.09-.03.08-.08,0-.04-.03-.07-.09-.07-.01,0-.03,0-.03,0,0,.05,0,.1.01.15Z"/>
        <path class="cls-5" d="M194.23,145.19s-.06,0-.08,0c0,.02,0,.05,0,.07.03,0,.06,0,.09,0v.02s-.08,0-.12,0c0-.06,0-.13,0-.19.04,0,.08,0,.12,0,0,0,0,.01,0,.02-.03,0-.06,0-.09,0,0,.02,0,.04,0,.06.03,0,.06,0,.08,0,0,0,0,.01,0,.02Z"/>
        <path class="cls-5" d="M194.55,145.22s0-.06,0-.08c0,0,0,0,0,0,0,.02-.02.04-.03.07-.01.03-.03.06-.04.09,0,0-.01,0-.02,0,0-.03-.02-.06-.03-.09,0-.03-.02-.05-.02-.07,0,0,0,0,0,0,0,.02,0,.05,0,.08,0,.03,0,.05,0,.08,0,0-.02,0-.03,0,0-.06.01-.12.02-.19.01,0,.02,0,.04,0,.01.03.02.06.03.09,0,.02.01.04.02.06,0,0,0,0,0,0,0-.02.01-.04.03-.06.01-.03.03-.06.04-.09.01,0,.02,0,.04,0,0,.06,0,.13,0,.19,0,0-.02,0-.03,0,0-.03,0-.05,0-.08Z"/>
        <path class="cls-5" d="M194.98,145.29s-.05-.01-.08-.02c0,.02,0,.04-.01.07.03,0,.06.01.09.02,0,0,0,.01,0,.02-.04,0-.08-.02-.11-.02,0-.06.02-.12.03-.18.04,0,.08.01.12.02,0,0,0,.01,0,.02-.03,0-.06-.01-.09-.02,0,.02,0,.04,0,.06.03,0,.05.01.08.02,0,0,0,.01,0,.02Z"/>
        <path class="cls-5" d="M195.3,145.26s.03,0,.05.01c.03,0,.04.02.05.03,0,.01.01.03,0,.04,0,.02-.01.03-.03.03-.02,0-.04,0-.07,0,0,0-.02,0-.02,0,0,.02-.01.05-.02.07,0,0-.02,0-.03,0,.02-.06.03-.12.05-.18ZM195.3,145.36s.01,0,.02,0c.03,0,.06,0,.06-.02,0-.02,0-.04-.04-.05-.01,0-.02,0-.03,0,0,.02-.01.05-.02.07Z"/>
        <path class="cls-5" d="M195.56,145.34s.03,0,.05.01c.03,0,.05.02.05.03,0,.01,0,.03,0,.04,0,.02-.03.03-.05.03,0,0,0,0,0,0,.01.01.02.03.02.05,0,.03,0,.05,0,.05,0,0-.02,0-.03,0,0,0,0-.02,0-.05,0-.03,0-.04-.03-.05,0,0-.02,0-.02,0,0,.03-.02.05-.03.08,0,0-.02,0-.03,0,.02-.06.04-.12.06-.17ZM195.56,145.43s.02,0,.03,0c.03,0,.05,0,.06-.02,0-.02,0-.04-.04-.05-.01,0-.02,0-.03,0,0,.02-.01.04-.02.06Z"/>
        <path class="cls-5" d="M195.95,145.58c-.03.06-.08.07-.13.05-.05-.02-.07-.07-.05-.12.02-.06.08-.08.13-.05.06.02.07.07.05.12ZM195.79,145.52s0,.08.03.09c.04.02.08,0,.09-.05.01-.03,0-.08-.03-.1-.04-.02-.08,0-.09.05Z"/>
        <path class="cls-5" d="M196.17,145.78s-.04,0-.06-.02c-.03-.01-.05-.03-.06-.06,0-.02,0-.05,0-.07.02-.05.08-.07.15-.04.02.01.04.02.04.03,0,0-.01,0-.02.01,0,0-.02-.02-.04-.03-.05-.02-.09-.01-.11.03-.02.04,0,.08.04.1.02,0,.03.01.03.01,0-.02.02-.03.03-.05-.01,0-.03-.01-.04-.02,0,0,0-.01,0-.02.02.01.04.02.06.03-.01.03-.03.05-.04.08Z"/>
        <path class="cls-5" d="M196.38,145.69s.03.01.05.02c.03.01.04.03.05.04,0,.01,0,.03,0,.04-.01.02-.04.03-.06.02,0,0,0,0,0,0,.01.01.01.03,0,.05,0,.03-.01.04-.01.05,0,0-.02,0-.02-.01,0,0,0-.02.01-.04,0-.03,0-.04-.02-.05,0,0-.02,0-.02-.01-.01.02-.03.05-.04.07,0,0-.02,0-.02-.01.03-.05.06-.11.09-.16ZM196.36,145.78s.02,0,.02.01c.03.01.05.01.06,0,.01-.02,0-.04-.03-.05-.01,0-.02-.01-.03-.01-.01.02-.02.04-.03.06Z"/>
        <path class="cls-5" d="M196.66,145.96s-.05-.03-.07-.04c-.01.02-.02.04-.04.06.03.02.05.03.08.05,0,0,0,.01-.01.02-.03-.02-.07-.04-.1-.06.03-.05.07-.1.1-.16.03.02.07.04.1.06,0,0,0,.01-.01.02-.03-.02-.05-.03-.08-.05-.01.02-.02.03-.03.05.02.01.05.03.07.04,0,0,0,.01-.01.02Z"/>
        <path class="cls-5" d="M196.74,146.08s.02.03.03.04c.02.02.04.01.06,0,.01-.01,0-.03-.01-.05-.02-.03-.03-.05-.01-.07.02-.02.05-.02.09,0,.02.01.03.03.03.04,0,0-.01,0-.02.01,0,0-.01-.02-.03-.03-.02-.02-.04-.01-.05,0-.01.01,0,.03.01.05.02.03.03.05.01.07-.02.02-.05.03-.09,0-.02-.01-.03-.03-.04-.04,0,0,.01,0,.02-.01Z"/>
        <path class="cls-5" d="M196.94,146.23s.02.03.03.04c.02.02.04.02.06,0,.01-.01,0-.03,0-.05-.02-.03-.03-.05-.01-.08.02-.02.06-.02.09,0,.02.01.03.03.03.04,0,0-.01,0-.02,0,0,0-.01-.02-.03-.03-.02-.02-.04-.01-.05,0-.01.01,0,.03.01.05.02.03.02.05,0,.08-.02.02-.05.03-.09,0-.02-.01-.03-.03-.03-.04,0,0,.01,0,.02-.01Z"/>
        <path class="cls-5" d="M197.32,146.46s-.1.04-.14,0c-.04-.04-.05-.09,0-.13.04-.04.1-.04.15,0,.05.04.05.09,0,.13ZM197.19,146.35s-.03.07,0,.1c.03.03.08.02.11,0,.03-.03.04-.07,0-.1-.04-.03-.08-.02-.11.01Z"/>
      </g>
    </g>
  </g>
</svg>